<svg xmlns="http://www.w3.org/2000/svg" viewBox="0 0 500 320"><path fill="#F3F4F4" d="M470 320H30c-16.5 0-30-13.5-30-30V30C0 13.5 13.5 0 30 0h440c16.5 0 30 13.5 30 30v260c0 16.5-13.5 30-30 30z"/><path fill="#0B69AA" d="M500 77.5H0V30C0 13.5 13.5 0 30 0h440c16.5 0 30 13.5 30 30v47.5z"/><path fill="#FFB727" d="M500 242.5H0V290c0 16.5 13.5 30 30 30h440c16.5 0 30-13.5 30-30v-47.5z"/><path fill="#0B69AA" d="M201.5 209l16.5-97.5h26.5L228 209zM324 114c-5-2-13.5-4-23.5-4-26 0-44.5 13-45 32 0 14 13 22 23 26.5 10.5 5 14 8 13.5 12 0 6.5-8 9.5-16 9.5-10.5 0-16-1.5-25-5l-3.5-1.5-3.5 22c6 2.5 17.5 5 29.5 5 28 0 46-13 46-33 0-11-7-19.5-22-26.5-9.5-4.5-15-7.5-15-12 0-4 5-8.5 15-8.5 8.5 0 15 2 20 3.5l2.5 1 4-21m68-2.5h-20.5c-6.5 0-11 1.5-14 8l-39.5 89h28s4.5-12 5.5-14.5h34c1 3.5 3 14.5 3 14.5H413l-21-97m-32.5 63c2-5.5 10.5-27 10.5-27 0 .5 2-5.5 3.5-9.5l2 8.5s5 23 6 28h-22zm-180-63l-26 66.5-3-13.5c-5-15.5-20-32.5-36.5-41l23.5 85h28l41.5-97h-27.5"/><path fill="#FFB727" d="M129.5 111.5H87l-.5 2c33 8 55 27.5 64.5 51l-9.5-44.5c-2-6.5-6.5-8-12-8.5"/></svg>